<?xml version="1.0" encoding="UTF-8" standalone="no"?> <svg xmlns="http://www.w3.org/2000/svg" xmlns:xlink="http://www.w3.org/1999/xlink" xmlns:serif="http://www.serif.com/" width="100%" height="100%" viewBox="0 0 73 42" version="1.1" xml:space="preserve" style="fill-rule:evenodd;clip-rule:evenodd;stroke-linejoin:round;stroke-miterlimit:2;"> <g transform="matrix(1,0,0,1,-718.021,-748.621)"> <g transform="matrix(1,0,0,1,496.418,2.0345)"> <g transform="matrix(0.987687,0,0,0.865905,-487.278,102.099)"> <rect x="717.718" y="744.294" width="73.529" height="48.103" style="fill:white;fill-opacity:0.02;"></rect> </g> <g transform="matrix(0.517101,0,0,0.517101,66.6367,391.496)"> <text x="312.858px" y="764.574px" style="font-family:'Arial-BoldMT', 'Arial', sans-serif;font-weight:700;font-size:16px;fill:rgb(95,95,95);">INFLUENCERS</text> </g> <g transform="matrix(0.0982254,0,0,0.0982254,244.949,747.379)"> <g> <clipPath id="_clip1"> <rect x="0" y="0" width="264" height="307"></rect> </clipPath> <g clip-path="url(#_clip1)"> <path d="M252,0L12,0C5.371,0 0,5.371 0,12L0,192C0,198.629 5.371,204 12,204C18.629,204 24,198.629 24,192L24,24L240,24L240,175.078L187.078,228L120,228C116.809,227.98 113.746,229.234 111.48,231.48L78,265.078L78,240C78,233.371 72.629,228 66,228L12,228C5.371,228 0,233.371 0,240C0,246.629 5.371,252 12,252L54,252L54,294C54.023,298.844 56.957,303.199 61.441,305.039C62.863,305.711 64.426,306.039 66,306C69.19,306.02 72.254,304.766 74.52,302.52L124.922,252L192,252C195.191,252.02 198.254,250.766 200.519,248.52L260.52,188.52C262.766,186.254 264.02,183.191 264,180L264,12C264,5.371 258.629,0 252,0Z" style="fill:rgb(95,95,95);fill-rule:nonzero;"></path> <path d="M120,156L120,96C120,89.371 114.629,84 108,84C101.371,84 96,89.371 96,96L96,156C96,162.629 101.371,168 108,168C114.629,168 120,162.629 120,156Z" style="fill:rgb(95,95,95);fill-rule:nonzero;"></path> <path d="M192,156L192,96C192,89.371 186.629,84 180,84C173.371,84 168,89.371 168,96L168,156C168,162.629 173.371,168 180,168C186.629,168 192,162.629 192,156Z" style="fill:rgb(95,95,95);fill-rule:nonzero;"></path> </g> </g> </g> </g> </g> </svg> 