<?xml version="1.0" encoding="UTF-8" standalone="no"?> <svg xmlns="http://www.w3.org/2000/svg" xmlns:xlink="http://www.w3.org/1999/xlink" xmlns:serif="http://www.serif.com/" width="100%" height="100%" viewBox="0 0 73 42" version="1.1" xml:space="preserve" style="fill-rule:evenodd;clip-rule:evenodd;stroke-linejoin:round;stroke-miterlimit:2;"> <g transform="matrix(1,0,0,1,-572.717,-748.619)"> <g transform="matrix(1,0,0,1,496.418,2.0345)"> <g transform="matrix(0.987687,0,0,0.865905,-632.583,102.096)"> <rect x="717.718" y="744.294" width="73.529" height="48.103" style="fill:white;fill-opacity:0.02;"></rect> </g> <g transform="matrix(0.0584286,0,0,0.0584285,97.6252,747.607)"> <path d="M498.227,221.262C498.211,221.25 498.199,221.234 498.188,221.223L289.738,12.785C280.852,3.895 269.039,-1 256.476,-1C243.91,-1 232.098,3.895 223.207,12.785L14.867,221.117C14.797,221.188 14.727,221.262 14.66,221.332C-3.586,239.684 -3.555,269.457 14.746,287.762C23.109,296.129 34.152,300.969 45.961,301.48C46.445,301.527 46.926,301.551 47.414,301.551L55.719,301.551L55.719,454.945C55.719,485.305 80.422,510.004 110.777,510.004L192.332,510.004C200.598,510.004 207.301,503.297 207.301,495.031L207.301,374.766C207.301,360.914 218.57,349.648 232.426,349.648L280.523,349.648C294.379,349.648 305.645,360.914 305.645,374.766L305.645,495.031C305.645,503.297 312.348,510.004 320.613,510.004L402.168,510.004C432.527,510.004 457.227,485.305 457.227,454.945L457.227,301.551L464.93,301.551C477.492,301.551 489.305,296.66 498.199,287.766C516.52,269.434 516.526,239.605 498.227,221.262ZM477.023,266.598C473.793,269.828 469.496,271.609 464.93,271.609L442.258,271.609C433.988,271.609 427.285,278.312 427.285,286.582L427.285,454.945C427.285,468.793 416.02,480.062 402.168,480.062L335.586,480.062L335.586,374.766C335.586,344.41 310.887,319.707 280.523,319.707L232.426,319.707C202.062,319.707 177.359,344.41 177.359,374.766L177.359,480.062L110.777,480.062C96.93,480.062 85.66,468.793 85.66,454.945L85.66,286.582C85.66,278.312 78.957,271.609 70.688,271.609L48.406,271.609C48.172,271.594 47.941,271.582 47.703,271.578C43.242,271.5 39.059,269.73 35.926,266.594C29.258,259.926 29.258,249.074 35.926,242.406C35.93,242.406 35.93,242.402 35.934,242.398L35.945,242.387L244.387,33.953C247.613,30.723 251.906,28.945 256.476,28.945C261.039,28.945 265.332,30.723 268.562,33.953L476.957,242.344C476.988,242.375 477.023,242.406 477.055,242.438C483.688,249.113 483.676,259.942 477.023,266.598Z" style="fill:rgb(95,95,95);fill-rule:nonzero;"></path> </g> <g transform="matrix(0.517101,0,0,0.517101,-61.9264,391.621)"> <text x="312.858px" y="764.574px" style="font-family:'Arial-BoldMT', 'Arial', sans-serif;font-weight:700;font-size:16px;fill:rgb(95,95,95);">INICIO</text> </g> </g> </g> </svg> 