<?xml version="1.0" encoding="UTF-8" standalone="no"?> <svg xmlns="http://www.w3.org/2000/svg" xmlns:xlink="http://www.w3.org/1999/xlink" xmlns:serif="http://www.serif.com/" width="100%" height="100%" viewBox="0 0 73 42" version="1.1" xml:space="preserve" style="fill-rule:evenodd;clip-rule:evenodd;stroke-linejoin:round;stroke-miterlimit:2;"> <g transform="matrix(1,0,0,1,-596.492,-748.947)"> <g transform="matrix(1,0,0,1,496.418,2.0345)"> <g transform="matrix(0.987687,0,0,0.865905,-608.807,102.424)"> <rect x="717.718" y="744.294" width="73.529" height="48.103" style="fill:white;fill-opacity:0.02;"></rect> </g> <g transform="matrix(0.124317,0,0,0.124317,120.474,746.521)"> <path d="M67.586,19.344C66.77,19.32 65.93,19.43 65.105,19.684L65.098,19.684L64.582,19.84L64.574,19.84C38.355,27.906 20.434,52.176 20.434,79.609L20.434,82.441C20.434,104.168 34.199,129.25 52.305,141.727L52.305,191.742C52.305,222.504 77.32,247.52 108.078,247.52L147.922,247.52C178.68,247.52 203.695,222.504 203.695,191.742L203.695,141.727C221.801,129.25 235.566,104.172 235.566,82.449L235.566,79.617C235.566,52.18 217.645,27.906 191.426,19.84L191.418,19.84L190.902,19.684L190.895,19.684C187.586,18.668 184.145,20.02 182.289,22.387C180.434,24.754 179.941,28.426 181.723,31.395L181.73,31.395L186.375,39.145L182.156,41.953C177.773,44.875 177.477,51.469 181.574,54.777C182.633,55.633 183.676,56.555 183.809,56.684C191.008,64.016 193.488,74.063 192.094,84.543C190.781,94.395 185.688,104.27 178.25,111.918C174.402,110.695 153.055,104.098 128.008,104.098C102.395,104.098 81.551,110.371 77.75,111.551C70.305,103.906 65.215,94.09 63.906,84.324C62.516,73.938 64.984,64.004 72.184,56.684C72.313,56.555 73.363,55.637 74.426,54.777C78.523,51.469 78.227,44.867 73.844,41.945L69.625,39.145L74.27,31.395C76.055,28.426 75.574,24.754 73.719,22.387C72.328,20.609 70.039,19.402 67.586,19.344ZM67.43,27.305L60.84,38.305C59.75,40.129 60.277,42.488 62.047,43.668L69.414,48.578C68.277,49.496 67.316,50.27 66.504,51.098C57.387,60.363 54.355,73.055 56.008,85.383C57.66,97.711 63.863,109.863 73.477,118.941C74.535,119.945 76.059,120.289 77.445,119.836C77.445,119.836 101.516,112.063 128.008,112.063C153.727,112.063 178.531,120.211 178.531,120.211C179.922,120.668 181.453,120.328 182.516,119.324C192.141,110.238 198.34,98.004 199.992,85.594C201.645,73.184 198.621,60.398 189.496,51.105L189.496,51.098C188.684,50.27 187.723,49.504 186.586,48.586L193.953,43.668C195.723,42.488 196.25,40.129 195.16,38.305L188.57,27.305L189.082,27.457L189.09,27.457C211.996,34.508 227.602,55.645 227.602,79.617L227.602,82.449C227.602,101.277 213.57,126.594 197.602,136.574C196.438,137.301 195.73,138.578 195.727,139.953L195.727,191.742C195.727,218.195 174.371,239.551 147.922,239.551L108.078,239.551C81.629,239.551 60.273,218.195 60.273,191.742L60.273,139.953C60.27,138.578 59.563,137.301 58.398,136.574C42.43,126.594 28.398,101.277 28.398,82.441L28.398,79.609C28.398,55.641 44.004,34.508 66.91,27.457L67.43,27.305ZM92.145,163.855C81.141,163.855 72.223,174.559 72.223,187.762C72.223,200.961 81.141,211.664 92.145,211.664C103.145,211.664 112.063,200.961 112.063,187.762C112.063,174.559 103.145,163.855 92.145,163.855ZM163.855,163.855C152.855,163.855 143.938,174.559 143.938,187.762C143.938,200.961 152.855,211.664 163.855,211.664C174.859,211.664 183.777,200.961 183.777,187.762C183.777,174.559 174.859,163.855 163.855,163.855Z" style="fill:rgb(95,95,95);fill-rule:nonzero;stroke:rgb(95,95,95);stroke-width:5.36px;"></path> </g> <g transform="matrix(0.517101,0,0,0.517101,-54.6819,391.993)"> <text x="312.858px" y="764.574px" style="font-family:'Arial-BoldMT', 'Arial', sans-serif;font-weight:700;font-size:16px;fill:rgb(95,95,95);">JUEGOS INDIE</text> </g> </g> </g> </svg> 