<?xml version="1.0" encoding="UTF-8" standalone="no"?> <svg xmlns="http://www.w3.org/2000/svg" xmlns:xlink="http://www.w3.org/1999/xlink" xmlns:serif="http://www.serif.com/" width="100%" height="100%" viewBox="0 0 73 42" version="1.1" xml:space="preserve" style="fill-rule:evenodd;clip-rule:evenodd;stroke-linecap:round;stroke-linejoin:round;stroke-miterlimit:1.5;"> <g transform="matrix(1,0,0,1,-791.392,-748.621)"> <g transform="matrix(1,0,0,1,496.418,2.0345)"> <g transform="matrix(0.987687,0,0,0.865905,-413.908,102.099)"> <rect x="717.718" y="744.294" width="73.529" height="48.103" style="fill:white;fill-opacity:0.02;"></rect> </g> <g transform="matrix(0.276268,0,0,0.276268,310.011,568.768)"> <path d="M36.865,678.612L50.162,678.872L35.957,686.478L36.181,751.574L36.74,752.692L68.841,753.475L69.176,725.513L74.545,725.737L74.657,740.053L84.387,740.836L85.059,753.363L95.237,753.699L100.717,747.323L101.053,752.804L116.823,753.251L118.054,717.796L106.086,717.907L106.421,707.282L95.349,706.499L95.684,699.005L88.19,698.67L95.125,695.426L106.086,695.09L106.421,684.577L116.712,684.465L116.264,652.029L113.58,649.68L83.604,649.121L83.493,661.2L74.209,661.424L73.986,675.964L68.729,675.629L68.729,649.904L57.208,649.345L52.734,652.812L50.721,649.121L35.957,649.233L36.865,678.612" style="fill:none;stroke:rgb(95,95,95);stroke-width:5.79px;"></path> </g> <g transform="matrix(0.517101,0,0,0.517101,142.518,391.483)"> <text x="312.858px" y="764.574px" style="font-family:'Arial-BoldMT', 'Arial', sans-serif;font-weight:700;font-size:16px;fill:rgb(95,95,95);">KARMALAND</text> </g> </g> </g> </svg> 