<?xml version="1.0" encoding="UTF-8" standalone="no"?> <svg xmlns="http://www.w3.org/2000/svg" xmlns:xlink="http://www.w3.org/1999/xlink" xmlns:serif="http://www.serif.com/" width="100%" height="100%" viewBox="0 0 73 42" version="1.1" xml:space="preserve" style="fill-rule:evenodd;clip-rule:evenodd;stroke-linejoin:round;stroke-miterlimit:2;"> <g transform="matrix(1,0,0,1,-645.342,-748.618)"> <g transform="matrix(1,0,0,1,496.418,2.0345)"> <g transform="matrix(0.987687,0,0,0.865905,-559.957,102.095)"> <rect x="717.718" y="744.294" width="73.529" height="48.103" style="fill:white;fill-opacity:0.02;"></rect> </g> <g transform="matrix(0.517101,0,0,0.517101,-1.10972,391.569)"> <text x="312.858px" y="764.574px" style="font-family:'Arial-BoldMT', 'Arial', sans-serif;font-weight:700;font-size:16px;fill:rgb(95,95,95);">MINECRAFT</text> </g> <g transform="matrix(0.019849,0,0,0.019849,170.68,747.992)"> <path d="M1333.33,0L133.333,0C59.8,0 0,59.8 0,133.333L0,1333.33C0,1406.87 59.8,1466.67 133.333,1466.67L1333.33,1466.67C1406.87,1466.67 1466.67,1406.87 1466.67,1333.33L1466.67,133.333C1466.67,59.8 1406.87,0 1333.33,0ZM1400,1333.33C1400,1370.08 1370.08,1400 1333.33,1400L133.333,1400C96.583,1400 66.667,1370.08 66.667,1333.33L66.667,133.333C66.667,96.583 96.583,66.667 133.333,66.667L1333.33,66.667C1370.08,66.667 1400,96.583 1400,133.333L1400,1333.33Z" style="fill:rgb(95,95,95);fill-rule:nonzero;stroke:rgb(95,95,95);stroke-width:20.15px;"></path> <path d="M600,566.667L600,366.667C600,348.242 585.092,333.333 566.667,333.333L366.667,333.333C348.242,333.333 333.333,348.242 333.333,366.667L333.333,566.667C333.333,585.092 348.242,600 366.667,600L566.667,600C585.092,600 600,585.092 600,566.667ZM400,400L533.333,400.004L533.333,533.338L400,533.338L400,400Z" style="fill:rgb(95,95,95);fill-rule:nonzero;stroke:rgb(95,95,95);stroke-width:20.15px;"></path> <path d="M1100,333.333L900,333.333C881.575,333.333 866.667,348.242 866.667,366.667L866.667,566.667C866.667,585.092 881.575,600 900,600L1100,600C1118.42,600 1133.33,585.092 1133.33,566.667L1133.33,366.667C1133.33,348.242 1118.42,333.333 1100,333.333ZM933.333,400L1066.67,400.004L1066.67,533.338L933.333,533.338L933.333,400Z" style="fill:rgb(95,95,95);fill-rule:nonzero;stroke:rgb(95,95,95);stroke-width:20.15px;"></path> <path d="M1033.33,733.333L866.667,733.333L866.667,633.333C866.667,614.908 851.758,600 833.333,600L633.333,600C614.908,600 600,614.908 600,633.333L600,733.333L433.333,733.333C414.908,733.333 400,748.242 400,766.667L400,1100C400,1118.42 414.908,1133.33 433.333,1133.33L566.667,1133.33C585.092,1133.33 600,1118.42 600,1100L600,1000L866.667,1000L866.667,1100C866.667,1118.42 881.575,1133.33 900,1133.33L1033.33,1133.33C1051.76,1133.33 1066.67,1118.42 1066.67,1100L1066.67,766.667C1066.67,748.242 1051.76,733.333 1033.33,733.333ZM1000,1066.67L933.333,1066.67L933.333,966.667C933.333,948.242 918.425,933.333 900,933.333L566.667,933.333C548.242,933.333 533.333,948.242 533.333,966.667L533.333,1066.67L466.667,1066.67L466.667,800L633.333,800C651.758,800 666.667,785.092 666.667,766.667L666.667,666.667L800,666.667L800,766.667C800,785.092 814.908,800 833.333,800L1000,800L1000,1066.67Z" style="fill:rgb(95,95,95);fill-rule:nonzero;stroke:rgb(95,95,95);stroke-width:20.15px;"></path> </g> </g> </g> </svg> 